<?xml version="1.0" encoding="UTF-8" standalone="no"?>
<!DOCTYPE svg PUBLIC "-//W3C//DTD SVG 1.1//EN" "http://www.w3.org/Graphics/SVG/1.1/DTD/svg11.dtd">
<svg width="100%" height="100%" viewBox="0 0 150 150" version="1.1" xmlns="http://www.w3.org/2000/svg" xmlns:xlink="http://www.w3.org/1999/xlink" xml:space="preserve" xmlns:serif="http://www.serif.com/" style="fill-rule:evenodd;clip-rule:evenodd;stroke-linejoin:round;stroke-miterlimit:2;">
    <g transform="matrix(1.14434,0,0,1.14121,-11.7981,-10.8186)">
        <path d="M30.03,29.11L74.18,56.65L141.39,9.48L94.21,76.06L121.22,120.23L76.6,93.22L10.31,140.92L58.09,73.92L30.03,29.11Z" style="fill-rule:nonzero;"/>
    </g>
    <g transform="matrix(1.24854,0,0,1.24854,-18.8532,-18.6817)">
        <path d="M118.83,48.81C118.33,49.3 118.24,50.06 118.59,50.66C122.74,57.88 125.12,66.25 125.12,75.16C125.12,85.18 122.12,94.5 116.96,102.29C116.56,102.9 116.63,103.7 117.14,104.21C117.82,104.9 118.96,104.78 119.49,103.97C124.97,95.7 128.16,85.8 128.16,75.16C128.16,65.69 125.63,56.81 121.22,49.14C120.72,48.27 119.54,48.11 118.83,48.81ZM75.86,124.42C66.67,124.42 58.06,121.89 50.69,117.49C50.09,117.13 49.33,117.21 48.84,117.7C48.13,118.41 48.28,119.59 49.14,120.11C56.97,124.78 66.11,127.47 75.88,127.47C86.69,127.47 96.74,124.17 105.09,118.54C105.88,118 106.01,116.89 105.34,116.21C104.82,115.68 104,115.61 103.39,116.02C95.53,121.33 86.07,124.43 75.89,124.43L75.86,124.42ZM75.86,25.9C84.57,25.9 92.77,28.18 99.88,32.17C100.48,32.51 101.23,32.41 101.71,31.93L101.72,31.93C102.43,31.2 102.26,30.01 101.38,29.51C93.83,25.27 85.12,22.86 75.86,22.86C65.18,22.86 55.23,26.08 46.95,31.59C46.14,32.13 46.02,33.26 46.71,33.94C47.23,34.46 48.03,34.53 48.64,34.13C56.44,28.94 65.8,25.91 75.86,25.91L75.86,25.9ZM35.28,45.08C34.61,44.4 33.49,44.51 32.94,45.29C27.03,53.77 23.55,64.07 23.55,75.16C23.55,84.55 26.04,93.36 30.38,100.98C30.88,101.86 32.08,102.02 32.79,101.31C33.27,100.82 33.36,100.07 33.02,99.48C28.93,92.31 26.59,84.01 26.59,75.17C26.59,64.72 29.86,55.02 35.43,47.04C35.85,46.43 35.8,45.62 35.28,45.09L35.28,45.08Z" style="fill-rule:nonzero;stroke:black;stroke-width:3.61px;"/>
    </g>
</svg>
